<?xml version="1.0" encoding="UTF-8"?>
<svg id="Camada_2" data-name="Camada 2" xmlns="http://www.w3.org/2000/svg" viewBox="0 0 1013.73 147.59">
  <defs>
    <style>
      .cls-1 {
        fill: #c60;
      }

      .cls-1, .cls-2, .cls-3 {
        stroke-width: 0px;
      }

      .cls-3 {
        fill: #555;
      }
    </style>
  </defs>
  <g id="Camada_1-2" data-name="Camada 1">
    <path class="cls-3" d="m117.15,41.25l.83-4.54h26.2l-.52,2.89c-.14.9-.09,1.5.15,1.81.24.31.84.46,1.81.46h35.89c.96,0,1.61-.15,1.96-.46.34-.31.55-.91.62-1.81l.21-1.55c.14-.89.07-1.5-.21-1.81-.28-.31-.86-.5-1.75-.57l-48.58-2.06c-4.26-.14-7.46-1.44-9.59-3.92-2.13-2.47-2.85-5.84-2.17-10.11l1.13-6.6c1.44-8.66,6.57-12.99,15.37-12.99h64.15c4.19,0,7.37,1.32,9.54,3.97,2.17,2.65,2.87,6.14,2.11,10.47l-.62,3.71h-26.2l.31-2.06c.14-.89.08-1.5-.15-1.81-.24-.31-.84-.46-1.81-.46h-33.42c-.96,0-1.62.15-1.96.46-.35.31-.55.91-.62,1.81l-.1.93c-.14.9-.07,1.5.21,1.81.27.31.86.5,1.75.57l48.58,2.06c4.26.14,7.46,1.44,9.59,3.92,2.13,2.48,2.85,5.85,2.17,10.11l-1.24,7.22c-1.44,8.66-6.57,13-15.37,13h-66.63c-4.26,0-7.46-1.32-9.59-3.97-2.13-2.65-2.82-6.14-2.06-10.47Z"/>
    <path class="cls-3" d="m299.48,0c13.61,0,19.22,6.81,16.81,20.42l-6.29,35.27h-23.1l-.72-4.64c-2.68,1.99-5.17,3.27-7.48,3.82-2.31.55-5.76.83-10.37.83h-39.09c-4.26,0-7.46-1.27-9.59-3.82-2.13-2.54-2.78-5.98-1.96-10.31l1.03-5.57c1.58-8.46,6.53-12.69,14.85-12.69h54.97l.52-3.09c.27-1.51.17-2.54-.31-3.09-.48-.55-1.48-.83-2.99-.83h-31.77c-1.31,0-2.2.22-2.68.67-.48.45-.86,1.32-1.13,2.63l-.21,1.13h-26.2l.72-4.43c.96-5.98,2.92-10.19,5.88-12.63,2.96-2.44,7.43-3.66,13.41-3.66h55.69Zm-20.01,41.46c1.99,0,3.57-.55,4.74-1.65l1.65-1.44.72-4.13h-37.85c-1.1,0-1.84.17-2.22.52-.38.34-.67,1.07-.88,2.17l-.31,1.86c-.14,1.1-.05,1.82.26,2.17.31.35,1.01.52,2.11.52h31.77Z"/>
    <path class="cls-2" d="m370.25,32.66c5.57,0,7.88,2.82,6.91,8.45l-1.19,6.83c-.48,2.84-1.41,4.85-2.79,6.01-1.38,1.17-3.49,1.75-6.34,1.75h-14.08c-1.96,0-3.41-.14-4.35-.43-.94-.28-1.88-.91-2.82-1.88l-1.11,2.3h-9.56l5.29-29.86h11.26l-1.45,8.23c.91-.57,1.81-.95,2.69-1.13.88-.18,2.15-.28,3.8-.28h13.74Zm-4.56,9.81c.11-.62.07-1.05-.13-1.28-.2-.23-.61-.34-1.24-.34h-12.76c-.94,0-1.69.23-2.26.68l-.73.6-.73,4.1.51.6c.37.46,1.07.68,2.09.68h12.76c.63,0,1.07-.11,1.32-.34.26-.23.44-.65.55-1.28l.6-3.41Z"/>
    <path class="cls-2" d="m407.41,32.66h14.08l-21.07,23.04h-9.47l-12.88-23.04h12.97l6.01,12.24,10.37-12.24Z"/>
    <path class="cls-3" d="m31.78,137.48c-22.47-23.82-16.72-65.73,12.84-93.62,18.54-17.49,42.05-25.31,62.55-22.83-23.4-11.78-56.28-5.48-80.62,17.47C-3.01,66.39-8.76,108.31,13.71,132.13c8.37,8.88,19.49,13.98,31.66,15.46-5.03-2.53-9.62-5.89-13.59-10.1Z"/>
    <path class="cls-3" d="m65.81,97.88c-5.28-5.6-3.93-15.45,3.02-22.01,4.36-4.11,9.89-5.95,14.71-5.37-5.5-2.77-13.23-1.29-18.95,4.11-6.95,6.56-8.3,16.41-3.02,22.01,1.97,2.09,4.58,3.29,7.44,3.63-1.18-.59-2.26-1.38-3.2-2.38Z"/>
    <path class="cls-2" d="m319.25,51.79c0-2.37,1.6-4.03,3.84-4.03s3.78,1.66,3.78,4.03-1.47,4.03-3.84,4.03c-2.24,0-3.78-1.73-3.78-4.03Z"/>
    <g>
      <path class="cls-1" d="m144.21,136.81l-3.73-9.47h-39.26l-7.1,9.47h-30.24l51.19-63.76h28.78l28.6,63.76h-28.24Zm-30.79-25.87h20.68l-7.1-18.22-13.57,18.22Z"/>
      <path class="cls-1" d="m189.88,136.81c-6.5,0-11.16-1.7-13.98-5.1-2.82-3.4-3.66-8.38-2.5-14.94l7.8-43.71h25.44l-6.81,38.61c-.24,1.58-.11,2.69.41,3.33.52.64,1.57.96,3.15.96h35.37c1.58,0,2.72-.29,3.42-.86.7-.58,1.17-1.66,1.41-3.24l6.84-38.8h25.44l-8.12,45.53c-1.15,6.56-3.39,11.24-6.69,14.04-3.31,2.8-8.21,4.19-14.71,4.19h-56.46Z"/>
      <path class="cls-1" d="m371.2,73.05l-3.73,20.95h-32.79l-7.63,42.81h-25.44l7.63-42.81h-32.79l3.73-20.95h91.02Z"/>
      <path class="cls-1" d="m383.78,136.81c-6.5,0-11.16-1.7-13.98-5.1-2.82-3.4-3.66-8.38-2.5-14.94l4.56-25.5c1.15-6.56,3.38-11.23,6.69-14.03,3.31-2.79,8.21-4.19,14.71-4.19h59.21c6.5,0,11.16,1.7,13.98,5.1,2.82,3.4,3.66,8.38,2.5,14.94l-4.56,25.5c-1.15,6.56-3.39,11.24-6.69,14.03-3.31,2.79-8.21,4.19-14.71,4.19h-59.21Zm13.3-20.04h38.07c1.58,0,2.72-.29,3.42-.86.7-.58,1.17-1.65,1.41-3.23l2.73-15.3c.24-1.58.1-2.69-.41-3.32-.52-.64-1.56-.96-3.14-.96h-38.07c-1.58,0-2.72.29-3.42.86-.7.58-1.17,1.66-1.41,3.23l-2.73,15.3c-.24,1.58-.11,2.69.41,3.32.51.64,1.56.96,3.14.96Z"/>
      <path class="cls-1" d="m563.03,73.05h23.5l-11.29,63.76h-24.59l5.65-31.97-26.33,23.23h-13.85l-18.13-23.32-5.73,32.06h-24.51l11.32-63.76h20.76l25.77,32.88,37.43-32.88Z"/>
      <path class="cls-1" d="m601.84,136.81c-6.5,0-11.16-1.7-13.98-5.1-2.82-3.4-3.66-8.38-2.5-14.94l4.56-25.5c1.15-6.56,3.38-11.23,6.69-14.03,3.31-2.79,8.21-4.19,14.71-4.19h59.21c6.5,0,11.16,1.7,13.98,5.1,2.82,3.4,3.66,8.38,2.5,14.94l-4.56,25.5c-1.15,6.56-3.39,11.24-6.69,14.03-3.31,2.79-8.21,4.19-14.71,4.19h-59.21Zm13.3-20.04h38.07c1.58,0,2.72-.29,3.42-.86.7-.58,1.17-1.65,1.41-3.23l2.73-15.3c.24-1.58.1-2.69-.41-3.32-.52-.64-1.56-.96-3.14-.96h-38.07c-1.58,0-2.72.29-3.42.86-.7.58-1.17,1.66-1.41,3.23l-2.73,15.3c-.24,1.58-.11,2.69.41,3.32.51.64,1.56.96,3.14.96Z"/>
      <path class="cls-1" d="m785.47,73.05l-3.73,20.95h-32.79l-7.63,42.81h-25.44l7.63-42.81h-32.79l3.73-20.95h91.02Z"/>
      <path class="cls-1" d="m790.45,73.05h25.81l-11.36,63.76h-25.8l11.36-63.76Z"/>
      <path class="cls-1" d="m895.5,73.05h29.88l-52.83,63.76h-22.96l-30.24-63.76h27.87l17.21,39.07,31.07-39.07Z"/>
      <path class="cls-1" d="m1010.54,91.09h-60.12l-1.09,6.19h56.47l-2.55,14.57h-56.47l-1.27,6.92h61.03l-3.19,18.04h-86.53l11.29-63.76h85.62l-3.19,18.04Z"/>
    </g>
  </g>
</svg>